<?xml version="1.0" standalone="no"?>
<!DOCTYPE svg PUBLIC "-//W3C//DTD SVG 20010904//EN"
 "http://www.w3.org/TR/2001/REC-SVG-20010904/DTD/svg10.dtd">
<svg version="1.0" xmlns="http://www.w3.org/2000/svg"
 width="512.000000pt" height="512.000000pt" viewBox="0 0 512.000000 512.000000"
 preserveAspectRatio="xMidYMid meet">

<g transform="translate(0.000000,512.000000) scale(0.100000,-0.100000)"
fill="#000000" stroke="none">
<path d="M1935 4739 c-265 -36 -549 -136 -778 -274 -517 -310 -850 -809 -953
-1430 -23 -135 -23 -442 -1 -584 82 -514 350 -980 740 -1285 669 -522 1589
-578 2298 -140 48 30 91 54 95 54 4 0 240 -231 523 -514 587 -586 554 -560
711 -560 117 0 166 20 249 99 82 78 115 153 115 260 -1 59 -6 96 -24 140 -21
57 -53 90 -540 580 l-517 520 48 75 c102 156 192 366 244 567 77 296 77 678 0
981 -96 381 -312 747 -587 996 -271 246 -603 414 -971 492 -107 23 -151 26
-352 29 -126 2 -261 -1 -300 -6z m570 -753 c244 -61 449 -184 629 -377 230
-248 336 -521 336 -870 0 -348 -109 -620 -350 -873 -149 -155 -288 -251 -468
-321 -296 -114 -672 -107 -963 19 -287 125 -549 385 -671 669 -122 283 -136
623 -36 927 105 325 403 638 732 772 167 68 289 88 516 83 146 -3 192 -7 275
-29z"/>
</g>
</svg>
